<?xml version="1.0" encoding="UTF-8" standalone="no"?>
<!-- Generator: Adobe Illustrator 16.0.0, SVG Export Plug-In . SVG Version: 6.00 Build 0)  -->

<svg
   xmlns:dc="http://purl.org/dc/elements/1.1/"
   xmlns:cc="http://creativecommons.org/ns#"
   xmlns:rdf="http://www.w3.org/1999/02/22-rdf-syntax-ns#"
   xmlns:svg="http://www.w3.org/2000/svg"
   xmlns="http://www.w3.org/2000/svg"
   xmlns:sodipodi="http://sodipodi.sourceforge.net/DTD/sodipodi-0.dtd"
   xmlns:inkscape="http://www.inkscape.org/namespaces/inkscape"
   version="1.1"
   x="0px"
   y="0px"
   width="250px"
   height="250px"
   viewBox="0 0 250 250"
   enable-background="new 0 0 250 250"
   xml:space="preserve"
   id="svg2"
   inkscape:version="0.91 r13725"
   sodipodi:docname="showconstraint.svg"><metadata
     id="metadata28"><rdf:RDF><cc:Work
         rdf:about=""><dc:format>image/svg+xml</dc:format><dc:type
           rdf:resource="http://purl.org/dc/dcmitype/StillImage" /><dc:title /></cc:Work></rdf:RDF></metadata><defs
     id="defs26" /><sodipodi:namedview
     pagecolor="#ffffff"
     bordercolor="#666666"
     borderopacity="1"
     objecttolerance="10"
     gridtolerance="10"
     guidetolerance="10"
     inkscape:pageopacity="0"
     inkscape:pageshadow="2"
     inkscape:window-width="1440"
     inkscape:window-height="837"
     id="namedview24"
     showgrid="true"
     showguides="false"
     inkscape:zoom="2.6700352"
     inkscape:cx="37.59312"
     inkscape:cy="107.03274"
     inkscape:window-x="1912"
     inkscape:window-y="172"
     inkscape:window-maximized="1"
     inkscape:current-layer="text3902"><inkscape:grid
       type="xygrid"
       id="grid3953" /></sodipodi:namedview><g
     id="Sharepoint"
     display="none"><path
       display="inline"
       fill="#FFFFFF"
       stroke="#6DCFF6"
       stroke-width="8"
       stroke-miterlimit="10"
       d="M245,125   c0,66.27-53.73,120-120,120S5,191.27,5,125S58.73,5,125,5S245,58.73,245,125z"
       id="path5" /><text
       transform="matrix(1 0 0 1 30.3994 174.8096)"
       display="inline"
       id="text7"><tspan
         x="0"
         y="0"
         fill="#6DCFF6"
         font-family="'GothamRounded-Bold'"
         font-size="150.5862"
         letter-spacing="-12"
         id="tspan9">S</tspan><tspan
         x="84.328"
         y="0"
         fill="#6DCFF6"
         font-family="'GothamRounded-Bold'"
         font-size="150.5862"
         id="tspan11">P</tspan></text>
</g><path
     style="fill:#da3b01;fill-opacity:1"
     d=""
     id="path3779"
     inkscape:connector-curvature="0" /><g
     inkscape:groupmode="layer"
     id="layer2"
     inkscape:label="O" /><g
     inkscape:groupmode="layer"
     id="layer3"
     inkscape:label="Content"><g
       style="font-size:40px;font-style:normal;font-weight:normal;line-height:125%;letter-spacing:0px;word-spacing:0px;fill:#cc00cc;fill-opacity:1;stroke:none;font-family:Gotham Rounded Bold;-inkscape-font-specification:Gotham Rounded Bold"
       id="text3902"><path
         style="fill:#cc00cc;fill-opacity:1"
         d="M 120.72109,247.26487 C 109.20004,246.4276 96.04236,243.86484 86.557949,240.61081 50.246869,228.15277 21.380349,198.79782 9.043259,161.7845 2.9423491,143.48079 1.5866991,125.60423 4.726249,104.85753 c 5.12297,-33.853528 25.085,-64.580216 54.28933,-83.565244 12.85194,-8.354733 31.05639,-15.7908982 44.491531,-18.1739272 6.19422,-1.098687 26.90098,-1.565664 36.81688,-0.83029 26.59074,1.971995 58.94899,19.0244142 78.04497,41.1287822 8.282,9.586757 12.53921,16.035874 18.13406,27.470747 9.49706,19.410302 13.55309,41.926462 11.65321,64.690262 -4.02028,48.16983 -38.19947,90.68018 -84.88715,105.57835 -12.82512,4.09253 -32.13748,6.86522 -42.54799,6.10866 z m 21.4198,-7.9476 c 8.10506,-0.91764 14.88873,-2.50735 22.54206,-5.2826 36.74022,-13.32273 64.23473,-43.23531 73.91836,-80.41928 3.02073,-11.59923 3.38408,-14.78282 3.38856,-29.69006 0.004,-14.63883 -0.31965,-17.58708 -3.1811,-28.942033 -8.20276,-32.550524 -32.02223,-61.516659 -62.47327,-75.971834 -9.67281,-4.5917 -19.15737,-7.550212 -30.74309,-9.5896602 -7.69697,-1.354908 -32.1698,-1.344104 -39.70183,0.01753 -15.407631,2.7853712 -27.568331,7.3365032 -40.493841,15.1547852 -7.90941,4.78418 -12.62877,8.411178 -19.18011,14.740583 -20.24024,19.554595 -31.64868,41.402482 -35.73563,68.435969 -1.25671,8.31266 -1.26752,24.05256 -0.0222,32.30931 3.04049,20.15882 10.39012,37.9798 22.2809,54.02544 4.57813,6.17782 14.4061,16.35532 20.44959,21.17686 14.91572,11.8999 33.77155,20.48967 52.436441,23.88745 8.57888,1.56171 23.49211,1.62196 36.51514,0.14754 l 0,0 z"
         id="path3838"
         inkscape:connector-curvature="0"
         inkscape:export-xdpi="5.8666072"
         inkscape:export-ydpi="5.8666072" /><text
         xml:space="preserve"
         style="font-style:normal;font-variant:normal;font-weight:bold;font-stretch:normal;font-size:184.08988953px;line-height:129.99999523%;font-family:Sans;-inkscape-font-specification:'Sans, Bold';text-align:start;letter-spacing:0px;word-spacing:0px;writing-mode:lr-tb;text-anchor:start;fill:#cc00cc;fill-opacity:1;stroke:none;stroke-width:1px;stroke-linecap:butt;stroke-linejoin:miter;stroke-opacity:1"
         x="48.773884"
         y="191.5822"
         id="text4152"
         sodipodi:linespacing="130%"
         inkscape:export-xdpi="5.8666072"
         inkscape:export-ydpi="5.8666072"><tspan
           sodipodi:role="line"
           id="tspan4154"
           x="48.773884"
           y="191.5822">H</tspan></text>
</g></g></svg>